<svg width="128" height="128" viewBox="0 0 128 128" fill="none" xmlns="http://www.w3.org/2000/svg">
<path d="M92.5078 30.5098C103.748 30.1891 114.145 37.5359 117.178 48.7822L124.934 77.5518L124.955 77.627C127.223 86.039 122.201 94.6988 113.716 96.958C106.848 98.7863 99.8285 95.8536 96.2002 90.2041L95.8604 89.6494C92.6386 84.0381 86.5609 80.2541 79.5967 80.2539H48.4033C41.4391 80.2541 35.3614 84.0381 32.1396 89.6494C28.6237 95.6595 21.3735 98.8452 14.2842 96.958C5.79916 94.6988 0.776943 86.039 3.04492 77.627L3.06641 77.5518L10.8223 48.7822C13.8549 37.5359 24.2516 30.1891 35.4922 30.5098L35.5137 30.5107H92.4863L92.5078 30.5098Z" fill="currentColor" fill-opacity="0.25" stroke="currentColor" stroke-width="3"/>
<mask id="path-2-inside-1_4_66" fill="white">
<path d="M33.5 41C36.2614 41 38.5 43.2386 38.5 46V51H43.5C46.2614 51 48.5 53.2386 48.5 56C48.4999 58.7614 46.2614 61 43.5 61H38.5V66C38.4999 68.7614 36.2614 71 33.5 71C30.7386 71 28.5001 68.7614 28.5 66V61H23.5C20.7386 61 18.5001 58.7614 18.5 56C18.5 53.2386 20.7386 51 23.5 51H28.5V46C28.5 43.2386 30.7386 41 33.5 41Z"/>
</mask>
<path d="M33.5 41C36.2614 41 38.5 43.2386 38.5 46V51H43.5C46.2614 51 48.5 53.2386 48.5 56C48.4999 58.7614 46.2614 61 43.5 61H38.5V66C38.4999 68.7614 36.2614 71 33.5 71C30.7386 71 28.5001 68.7614 28.5 66V61H23.5C20.7386 61 18.5001 58.7614 18.5 56C18.5 53.2386 20.7386 51 23.5 51H28.5V46C28.5 43.2386 30.7386 41 33.5 41Z" fill="currentColor" fill-opacity="0.25"/>
<path d="M33.5 41V39V41ZM38.5 46H36.5V46H38.5ZM38.5 51H36.5V53H38.5V51ZM43.5 51V49V49V51ZM48.5 56L50.5 56V56H48.5ZM43.5 61V63V63V61ZM38.5 61V59H36.5V61H38.5ZM38.5 66L40.5 66V66H38.5ZM33.5 71V73V73V71ZM28.5 66H26.5V66L28.5 66ZM28.5 61H30.5V59H28.5V61ZM23.5 61V63V63V61ZM18.5 56H16.5V56L18.5 56ZM23.5 51V49V49V51ZM28.5 51V53H30.5V51H28.5ZM28.5 46H26.5V46H28.5ZM33.5 41V43C35.1569 43 36.5 44.3431 36.5 46H38.5H40.5C40.5 42.134 37.366 39 33.5 39V41ZM38.5 46H36.5V51H38.5H40.5V46H38.5ZM38.5 51V53H43.5V51V49H38.5V51ZM43.5 51V53C45.1569 53 46.5 54.3431 46.5 56H48.5H50.5C50.5 52.134 47.366 49 43.5 49V51ZM48.5 56L46.5 56C46.5 57.6568 45.1568 59 43.5 59V61V63C47.366 63 50.4999 59.8659 50.5 56L48.5 56ZM43.5 61V59H38.5V61V63H43.5V61ZM38.5 61H36.5V66H38.5H40.5V61H38.5ZM38.5 66L36.5 66C36.5 67.6568 35.1568 69 33.5 69V71V73C37.366 73 40.4999 69.8659 40.5 66L38.5 66ZM33.5 71V69C31.8432 69 30.5 67.6568 30.5 66L28.5 66L26.5 66C26.5001 69.8659 29.634 73 33.5 73V71ZM28.5 66H30.5V61H28.5H26.5V66H28.5ZM28.5 61V59H23.5V61V63H28.5V61ZM23.5 61V59C21.8432 59 20.5 57.6568 20.5 56L18.5 56L16.5 56C16.5001 59.8659 19.634 63 23.5 63V61ZM18.5 56H20.5C20.5 54.3431 21.8431 53 23.5 53V51V49C19.634 49 16.5 52.134 16.5 56H18.5ZM23.5 51V53H28.5V51V49H23.5V51ZM28.5 51H30.5V46H28.5H26.5V51H28.5ZM28.5 46H30.5C30.5 44.3431 31.8431 43 33.5 43V41V39C29.634 39 26.5 42.134 26.5 46H28.5Z" fill="currentColor" mask="url(#path-2-inside-1_4_66)"/>
<path d="M78.5 56C78.5 58.7614 80.7386 61 83.5 61C86.2614 61 88.5 58.7614 88.5 56C88.5 53.2386 86.2614 51 83.5 51C80.7386 51 78.5 53.2386 78.5 56Z" fill="currentColor"/>
<path d="M93.5 51C96.2614 51 98.5 48.7614 98.5 46C98.5 43.2386 96.2614 41 93.5 41C90.7386 41 88.5 43.2386 88.5 46C88.5 48.7614 90.7386 51 93.5 51Z" fill="currentColor"/>
<path d="M93.5 71C96.2614 71 98.5 68.7614 98.5 66C98.5 63.2386 96.2614 61 93.5 61C90.7386 61 88.5 63.2386 88.5 66C88.5 68.7614 90.7386 71 93.5 71Z" fill="currentColor"/>
<path d="M98.5 56C98.5 58.7614 100.739 61 103.5 61C106.261 61 108.5 58.7614 108.5 56C108.5 53.2386 106.261 51 103.5 51C100.739 51 98.5 53.2386 98.5 56Z" fill="currentColor"/>
</svg>
