<svg width="128" height="128" viewBox="0 0 128 128" fill="none" xmlns="http://www.w3.org/2000/svg">
<rect x="1" y="1" width="126" height="126" rx="19" fill="currentColor" fill-opacity="0.25" stroke="currentColor" stroke-width="2"/>
<path d="M56 93H72H109C111.761 93 114 90.7614 114 88V38C114 35.2386 111.761 33 109 33H19C16.2386 33 14 35.2386 14 38V88C14 90.7614 16.2386 93 19 93H56Z" fill="currentColor" fill-opacity="0.25"/>
<path d="M72 101V93H56V101H43C41.3431 101 40 102.343 40 104C40 105.657 41.3431 107 43 107H85C86.6569 107 88 105.657 88 104C88 102.343 86.6569 101 85 101H72Z" fill="currentColor"/>
<path d="M56 93V101H43M56 93H72M56 93H19M72 93V101H85M72 93H109M19 33H109M19 33C16.2386 33 14 35.2386 14 38M19 33C16.2386 33 14 35.2386 14 38M109 33C111.761 33 114 35.2386 114 38M109 33C111.761 33 114 35.2386 114 38M114 38V88M114 88C114 90.7614 111.761 93 109 93M114 88C114 90.7614 111.761 93 109 93M85 101C86.6569 101 88 102.343 88 104M85 101C86.6569 101 88 102.343 88 104M88 104C88 105.657 86.6569 107 85 107M88 104C88 105.657 86.6569 107 85 107M85 107H43M43 107C41.3431 107 40 105.657 40 104M43 107C41.3431 107 40 105.657 40 104M40 104C40 102.343 41.3431 101 43 101M40 104C40 102.343 41.3431 101 43 101M19 93C16.2386 93 14 90.7614 14 88M19 93C16.2386 93 14 90.7614 14 88M14 88V38" stroke="currentColor" stroke-width="2"/>
<path d="M46.2812 52.8906C46.6667 52.5469 47.1719 52.3646 47.7969 52.3438C48.4844 52.3438 49.0521 52.5312 49.5 52.9062C49.9583 53.2917 50.1823 53.8125 50.1719 54.4688L49.9375 62.2188H62.1719L62.4062 54.375C62.4271 53.7917 62.6406 53.3073 63.0469 52.9219C63.4323 52.5573 63.9323 52.3646 64.5469 52.3438C65.2344 52.3438 65.6823 52.4427 65.8906 52.6406C66.1094 52.8281 66.3229 53.0208 66.5312 53.2188C66.7396 53.4062 66.8333 53.8281 66.8125 54.4844L66.3281 74.5625C66.3073 75.2396 66.0885 75.7656 65.6719 76.1406C65.2344 76.5469 64.6615 76.7396 63.9531 76.7188C63.3385 76.7083 62.8177 76.4896 62.3906 76.0625C61.9948 75.6667 61.8073 75.1615 61.8281 74.5469L62.0469 66.8125H49.8281L49.6094 74.5781C49.5885 75.2031 49.4635 75.6198 49.2344 75.8281C49.0052 76.026 48.7708 76.224 48.5312 76.4219C48.3021 76.6302 47.849 76.7292 47.1719 76.7188C46.526 76.7083 46.0208 76.4896 45.6562 76.0625C45.3021 75.6667 45.1354 75.1458 45.1562 74.5L45.6719 54.3594C45.6823 53.7448 45.8854 53.2552 46.2812 52.8906ZM71.0938 60.375C71.4896 59.875 72.0469 59.6302 72.7656 59.6406C73.4635 59.651 73.9948 59.9115 74.3594 60.4219C74.7135 60.8802 74.8854 61.4688 74.875 62.1875L74.6562 74.1719C74.6458 74.9219 74.4583 75.5365 74.0938 76.0156C73.7292 76.526 73.1927 76.7812 72.4844 76.7812C71.7448 76.7708 71.1771 76.5208 70.7812 76.0312C70.3854 75.5833 70.1927 74.9948 70.2031 74.2656L70.4688 62.1875C70.4896 61.4375 70.6979 60.8333 71.0938 60.375ZM72.9062 52.5H72.9688C73.4479 52.5 73.8854 52.6146 74.2812 52.8438C74.7188 53.0938 75.0521 53.4479 75.2812 53.9062C75.4688 54.2812 75.5625 54.6823 75.5625 55.1094V55.2969V55.3281C75.5208 55.8281 75.349 56.2812 75.0469 56.6875C74.776 57.0417 74.4688 57.2969 74.125 57.4531C73.7708 57.6302 73.375 57.7188 72.9375 57.7188H72.8438C72.4062 57.7083 72 57.5833 71.625 57.3438C71.25 57.1146 70.9479 56.8125 70.7188 56.4375C70.4688 56.0312 70.3438 55.5885 70.3438 55.1094C70.3438 54.6615 70.4583 54.2396 70.6875 53.8438C70.9167 53.4583 71.2083 53.1406 71.5625 52.8906C71.9792 52.6302 72.4271 52.5 72.9062 52.5ZM79.9375 71.9844C80.1562 71.9219 80.3802 71.901 80.6094 71.9219C80.8385 71.9219 81.0625 71.9479 81.2812 72C81.7188 72.125 82.0938 72.3438 82.4062 72.6562C82.7917 73.0104 83.0312 73.4167 83.125 73.875C83.1667 74.0729 83.1875 74.276 83.1875 74.4844V74.5V74.5156C83.1875 74.7865 83.1667 75.0052 83.125 75.1719C82.9896 75.6823 82.7344 76.1094 82.3594 76.4531C81.9635 76.8073 81.4896 77.0208 80.9375 77.0938C80.8542 77.1042 80.7656 77.1146 80.6719 77.125H80.625H80.5938C80.1875 77.125 79.8073 77.0365 79.4531 76.8594C78.974 76.6302 78.6042 76.2865 78.3438 75.8281C78.1146 75.4219 78 74.9844 78 74.5156C78 74.1719 78.0625 73.8385 78.1875 73.5156C78.3438 73.1406 78.5781 72.8177 78.8906 72.5469C79.1823 72.276 79.5312 72.0885 79.9375 71.9844ZM80.75 50.8438C81.375 50.8438 81.7812 50.9375 81.9688 51.125C82.1562 51.3125 82.3438 51.5 82.5312 51.6875C82.7188 51.875 82.8125 52.2812 82.8125 52.9062L82.7812 69.4844C82.7812 70.0885 82.5885 70.5573 82.2031 70.8906C81.8177 71.2344 81.3177 71.4062 80.7031 71.4062H80.6562C80.0625 71.4167 79.6771 71.3281 79.5 71.1406C79.3333 70.9531 79.1615 70.7656 78.9844 70.5781C78.8073 70.3906 78.7188 69.9948 78.7188 69.3906L78.6875 52.8438C78.6875 52.2292 78.8698 51.7396 79.2344 51.375C79.5885 51.0208 80.0781 50.8438 80.7031 50.8438H80.75Z" fill="currentColor"/>
</svg>
