<svg width="128" height="128" viewBox="0 0 128 128" fill="none" xmlns="http://www.w3.org/2000/svg">
<rect x="1" y="1" width="126" height="126" rx="19" fill="currentColor" fill-opacity="0.25" stroke="currentColor" stroke-width="2"/>
<path d="M102.929 88.0077L70.9547 32.0524C70.2575 30.8222 69.2464 29.7989 68.0247 29.087C66.803 28.3751 65.4142 28 64.0002 28C62.5862 28 61.1975 28.3751 59.9757 29.087C58.754 29.7989 57.7429 30.8222 57.0458 32.0524L25.0713 88.0077C24.3665 89.2282 23.997 90.6133 24.0001 92.0226C24.0033 93.4319 24.3789 94.8153 25.089 96.0326C25.7991 97.25 26.8185 98.2579 28.0437 98.9543C29.2689 99.6507 30.6564 100.011 32.0657 99.9982H96.0147C97.4172 99.9967 98.7946 99.6263 100.009 98.9242C101.223 98.222 102.231 97.2128 102.931 95.9978C103.632 94.7829 104 93.405 104 92.0025C104 90.6 103.63 89.2223 102.929 88.0077Z" stroke="currentColor" stroke-width="4" stroke-linecap="round" stroke-linejoin="round"/>
<path d="M64 48L64 72" stroke="currentColor" stroke-width="4" stroke-linecap="round" stroke-linejoin="round"/>
<circle cx="64" cy="84" r="1" fill="currentColor" stroke="currentColor" stroke-width="4"/>
</svg>
