<svg width="128" height="128" viewBox="0 0 128 128" fill="none" xmlns="http://www.w3.org/2000/svg">
<rect x="1" y="1" width="126" height="126" rx="19" fill="currentColor" fill-opacity="0.25" stroke="currentColor" stroke-width="2"/>
<path d="M28.3906 79.5156C26.4219 80.4115 24.9427 80.8646 23.9531 80.875C21.3281 80.875 19.4115 80.2292 18.2031 78.9375C17.0052 77.6458 16.401 75.7708 16.3906 73.3125C16.3594 70.0938 17.4062 67.5938 19.5312 65.8125C22.2083 63.8438 25.0417 63.2292 28.0312 63.9688C28.5 63.75 29.0365 63.7188 29.6406 63.875C30.349 64.0417 30.7812 64.2552 30.9375 64.5156C31.1042 64.776 31.2656 65.0417 31.4219 65.3125C31.5885 65.5729 31.6094 66.0781 31.4844 66.8281C31.276 67.9948 31.1458 70.0104 31.0938 72.875C31.0625 75.0729 31.2917 76.6042 31.7812 77.4688C32.0833 77.9896 32.2708 78.4479 32.3438 78.8438C32.4375 79.3438 32.3646 79.7708 32.125 80.125C31.8854 80.5104 31.5208 80.7552 31.0312 80.8594C30.4479 80.9948 29.9271 80.9427 29.4688 80.7031C28.9896 80.474 28.6302 80.0781 28.3906 79.5156ZM23.2188 77.4219C24.0729 77.474 24.8646 77.3698 25.5938 77.1094C25.875 77.0156 26.3958 76.6771 27.1562 76.0938C26.8229 72.125 26.8542 69.25 27.25 67.4688C26.4896 67.125 25.7031 67.0469 24.8906 67.2344C24.1719 67.401 23.6094 67.6302 23.2031 67.9219C21.4531 69.1406 20.5312 70.8646 20.4375 73.0938C20.4583 74.5729 20.5833 75.4792 20.8125 75.8125C21.0417 76.1458 21.2708 76.4844 21.5 76.8281C21.7292 77.1615 22.3021 77.3594 23.2188 77.4219ZM35.5781 55.4219C35.9323 55.0365 36.401 54.8438 36.9844 54.8438C37.6302 54.8438 38.1667 55.0417 38.5938 55.4375C39.0312 55.8333 39.2448 56.375 39.2344 57.0625L39.0781 64.4844C40.1615 63.9427 41.2188 63.6719 42.25 63.6719C44.9271 63.6719 46.6667 64.1198 47.4688 65.0156C48.2708 65.9115 49.0677 66.8125 49.8594 67.7188C50.6615 68.6146 50.9844 70.4688 50.8281 73.2812C50.7135 75.3958 49.8906 77.1979 48.3594 78.6875C46.8073 80.0729 44.9896 80.7708 42.9062 80.7812C41.5 80.7917 40.0052 80.3906 38.4219 79.5781C38.0365 80.3281 37.3698 80.6927 36.4219 80.6719C35.8281 80.6615 35.3594 80.4323 35.0156 79.9844C34.6823 79.5677 34.5208 79.0365 34.5312 78.3906L35.0312 56.9531C35.0417 56.3177 35.224 55.8073 35.5781 55.4219ZM38.8125 75.4375C40.5729 76.6458 41.9062 77.1927 42.8125 77.0781C44.125 76.9115 45.0885 76.4531 45.7031 75.7031C46.5052 74.6927 46.9167 73.6458 46.9375 72.5625C46.9688 71.1562 46.5521 69.9062 45.6875 68.8125C45.2812 68.2917 44.401 67.8542 43.0469 67.5C41.7344 67.1667 40.3698 67.6354 38.9531 68.9062L38.8125 75.4375ZM60.5781 76.8594C61.9531 76.901 63.2135 76.5729 64.3594 75.875C64.4115 75.8438 64.4635 75.8125 64.5156 75.7812C65.0469 75.4688 65.4375 75.349 65.6875 75.4219C65.9375 75.4948 66.1823 75.5677 66.4219 75.6406C66.6719 75.7135 66.9583 76.026 67.2812 76.5781C67.7604 77.4115 67.4688 78.3021 66.4062 79.25C65.25 80.2604 63.2969 80.7604 60.5469 80.75C58.2656 80.7396 56.4375 80.1042 55.0625 78.8438C53.4896 77.2917 52.6979 75.349 52.6875 73.0156C52.6875 70.5052 53.2448 68.4375 54.3594 66.8125C55.7448 64.8021 57.6979 63.7188 60.2188 63.5625C61.6458 63.4583 62.9479 63.5885 64.125 63.9531C65.4062 64.3906 66.276 64.974 66.7344 65.7031C66.9635 66.0677 67.0938 66.3385 67.125 66.5156C67.1667 66.6823 67.2031 66.8542 67.2344 67.0312C67.276 67.2083 67.2656 67.3802 67.2031 67.5469C67.151 67.7031 67.0938 67.8646 67.0312 68.0312C66.9792 68.1979 66.7969 68.3958 66.4844 68.625C65.7969 69.125 64.8594 68.9427 63.6719 68.0781C62.5573 67.3594 61.2812 67.1979 59.8438 67.5938C59.0625 67.8021 58.3438 68.3125 57.6875 69.125C56.9167 70.0833 56.5156 71.1875 56.4844 72.4375C56.4531 73.5833 56.8438 74.6354 57.6562 75.5938C58.3542 76.3958 59.3281 76.8177 60.5781 76.8594Z" fill="currentColor"/>
<path d="M74.8923 69.5265C74.1762 70.1349 73.0922 69.509 73.2609 68.5847L76.676 49.8766C76.6966 49.764 76.7369 49.656 76.7941 49.5569L96.6115 15.2322C96.8876 14.754 97.4992 14.59 97.9775 14.8661L109.056 21.2621C109.534 21.5382 109.698 22.1499 109.422 22.6281L89.6043 56.9529C89.547 57.052 89.4729 57.1403 89.3856 57.2145L74.8923 69.5265Z" fill="currentColor" fill-opacity="0.25" stroke="currentColor" stroke-width="2" stroke-linejoin="round"/>
</svg>
